<svg width="78" height="20" viewBox="0 0 78 20" fill="none"
    xmlns="http://www.w3.org/2000/svg">
    <path d="M40.4793 0H36.4082V19.9986H40.4793V0Z" fill="black" fill-opacity="0.9"/>
    <path d="M0.79187 0.0221237H5.11347V8.99348L13.193 0.0221237H18.4332L11.0218 8.24586L18.9134 20H13.7358L7.97366 11.5686L5.11347 14.7459V20H0.79187V0.0221237Z" fill="black" fill-opacity="0.9"/>
    <path fill-rule="evenodd" clip-rule="evenodd" d="M34.8425 19.8117H32.7757C30.9176 19.8117 29.999 19.0017 30.0407 17.4027C29.4979 18.2334 28.8299 18.8771 28.0574 19.3132C27.2641 19.7494 26.3246 19.9778 25.1972 19.9778C23.5479 19.9778 22.2117 19.604 21.1888 18.8564C20.1866 18.088 19.6856 17.0289 19.6856 15.6582C19.6856 14.1007 20.2702 12.8962 21.4184 12.0656C22.5875 11.2141 24.2786 10.778 26.4916 10.778H29.4353V10.0719C29.4353 9.40737 29.1848 8.8882 28.6837 8.49362C28.1827 8.09905 27.5146 7.89138 26.6586 7.89138C25.907 7.89138 25.3016 8.05751 24.8214 8.36902C24.3412 8.70129 24.0489 9.1374 23.9654 9.67734H20.0196C20.1449 8.18212 20.8338 7.01916 22.0447 6.18848C23.2556 5.3578 24.8632 4.92169 26.8674 4.92169C28.9551 4.92169 30.5835 5.37857 31.7109 6.29232C32.8592 7.20607 33.4437 8.53516 33.4437 10.2588V15.4298C33.4437 15.7828 33.5272 16.0321 33.6734 16.1774C33.8195 16.302 34.0701 16.3851 34.4041 16.3851H34.8425V19.8117ZM26.4498 13.4569C25.6147 13.4569 24.9467 13.6231 24.4665 13.9761C24.0072 14.3084 23.7775 14.7653 23.7775 15.3675C23.7775 15.8867 23.9654 16.2813 24.3621 16.5928C24.7588 16.9043 25.3016 17.0496 25.9697 17.0496C27.0344 17.0496 27.8695 16.7589 28.4749 16.1567C29.0804 15.5544 29.4144 14.7445 29.4353 13.7269V13.4569H26.4498Z" fill="black" fill-opacity="0.9"/>
    <path d="M45.8864 14.9314C45.9491 15.5752 46.2622 16.0944 46.8468 16.5097C47.4314 16.9043 48.1621 17.112 49.0598 17.112C49.9158 17.112 50.6047 16.9874 51.1058 16.7174C51.6068 16.4266 51.8574 16.0321 51.8574 15.5129C51.8574 15.1391 51.7321 14.8483 51.5024 14.6614C51.2728 14.4745 50.9387 14.3292 50.5212 14.2669C50.1037 14.163 49.4147 14.0592 48.4544 13.9554C47.1391 13.7892 46.0535 13.5608 45.1975 13.2908C44.3415 13.0208 43.6317 12.6055 43.1306 12.024C42.6087 11.4426 42.3582 10.6949 42.3582 9.73966C42.3582 8.78438 42.6087 7.9537 43.1306 7.22685C43.6734 6.47924 44.425 5.91853 45.3854 5.50319C46.3457 5.10861 47.4522 4.90094 48.7049 4.90094C50.73 4.92171 52.3375 5.35782 53.5693 6.1885C54.8219 7.01918 55.49 8.18213 55.5944 9.67736H51.7321C51.6695 9.11665 51.3772 8.68054 50.8344 8.3275C50.3124 7.97446 49.6444 7.78756 48.8093 7.78756C48.0368 7.78756 47.4105 7.93293 46.9303 8.22367C46.471 8.5144 46.2414 8.88821 46.2414 9.36585C46.2414 9.71889 46.3666 9.9681 46.6171 10.1342C46.8677 10.3004 47.2017 10.425 47.5984 10.508C47.995 10.5911 48.684 10.6742 49.6235 10.7572C51.6277 10.9857 53.1517 11.4218 54.1956 12.0448C55.2812 12.647 55.8032 13.7062 55.8032 15.2222C55.8032 16.1774 55.5109 17.0081 54.9472 17.735C54.3835 18.4618 53.611 19.0225 52.5881 19.4171C51.5859 19.7909 50.4168 19.9986 49.1015 19.9986C47.0556 19.9986 45.3645 19.5417 44.091 18.6487C42.7966 17.735 42.1285 16.4889 42.045 14.9314H45.8864Z" fill="black" fill-opacity="0.9"/>
    <path d="M70.1253 6.72852C68.9979 5.6694 67.5783 5.12945 65.8246 5.12945C64.0083 5.12945 62.5469 5.794 61.4404 7.12309V0H57.3693V19.9986H61.4404V12.4602C61.4404 11.1934 61.7118 10.2174 62.2963 9.5113C62.8809 8.80522 63.6951 8.45218 64.739 8.45218C65.7411 8.45218 66.4927 8.78445 66.9937 9.42823C67.4948 10.0512 67.7453 10.965 67.7453 12.1902V19.9986H71.8164V12.0241C71.8164 9.55283 71.2527 7.78763 70.1253 6.72852Z" fill="black" fill-opacity="0.9"/>
    <path d="M73.3818 5.29551H77.4529V19.9778H73.3818V5.29551Z" fill="black" fill-opacity="0.9"/>
    <path d="M76.848 0.581477C76.4722 0.20767 75.992 0 75.4074 0C74.8437 0 74.3427 0.20767 73.946 0.581477C73.5702 0.955283 73.3614 1.41216 73.3614 1.97287C73.3614 2.53358 73.5702 3.01122 73.946 3.38502C74.3427 3.75883 74.8437 3.9665 75.4074 3.9665C75.9711 3.9665 76.4722 3.7796 76.848 3.38502C77.2237 2.99045 77.4325 2.53358 77.4325 1.97287C77.4325 1.41216 77.2237 0.934516 76.848 0.581477Z" fill="black" fill-opacity="0.9"/>
</svg>
